<?xml version="1.0" standalone="no"?>
<!DOCTYPE svg PUBLIC "-//W3C//DTD SVG 20010904//EN"
 "http://www.w3.org/TR/2001/REC-SVG-20010904/DTD/svg10.dtd">
<svg version="1.0" xmlns="http://www.w3.org/2000/svg"
 width="299.000000pt" height="299.000000pt" viewBox="0 0 299.000000 299.000000"
 preserveAspectRatio="xMidYMid meet">

<g transform="translate(0.000000,299.000000) scale(0.100000,-0.100000)"
fill="#000000" stroke="none">
<path d="M1279 2705 c-62 -12 -189 -51 -189 -58 0 -1 51 -1 112 0 113 1 113 1
38 -8 -189 -23 -328 -97 -379 -203 -27 -54 -27 -79 -1 -46 27 34 25 21 -4 -31
-52 -92 -74 -274 -41 -344 l13 -30 2 35 c1 19 5 44 9 55 7 16 10 9 16 -30 4
-27 16 -74 26 -104 11 -30 19 -56 19 -58 0 -1 -15 -3 -34 -3 -25 0 -39 -7 -50
-22 -46 -65 15 -285 107 -385 13 -15 23 -46 29 -85 8 -56 36 -166 60 -227 7
-21 11 -23 18 -11 7 11 10 7 10 -15 1 -68 75 -180 156 -235 38 -27 44 -28 44
-13 0 14 4 12 17 -9 23 -36 87 -53 198 -53 100 1 161 17 187 49 10 12 18 16
18 8 0 -20 83 41 123 91 44 54 77 115 77 144 0 12 6 26 13 30 24 15 77 189 77
255 0 24 8 46 24 65 72 87 126 222 126 319 0 64 -23 94 -70 94 -16 0 -30 2
-30 3 0 2 10 30 22 63 18 49 22 81 22 189 0 160 -7 178 -87 219 -108 55 -290
47 -422 -19 -46 -23 -48 -23 -25 -4 69 60 228 104 349 96 91 -5 81 7 -39 47
-119 39 -256 45 -378 16 -104 -24 -239 -89 -317 -151 l-50 -41 55 52 c100 93
291 170 463 186 86 8 222 -9 301 -36 31 -10 56 -15 56 -11 0 5 -24 33 -53 63
-59 60 -162 118 -252 143 -85 23 -272 28 -366 10z m675 -427 c-9 -18 -30 -52
-46 -76 -28 -41 -29 -44 -22 -130 3 -48 12 -114 20 -147 24 -106 28 -242 10
-315 -16 -62 -110 -265 -140 -303 -14 -18 -16 -18 -54 2 -22 11 -76 30 -119
42 -135 38 -269 26 -410 -37 -67 -29 -61 -35 -138 121 -72 146 -89 214 -82
331 4 50 9 97 12 105 3 9 29 21 57 29 93 23 218 94 323 183 184 155 287 185
427 125 l47 -20 33 27 c18 15 46 45 62 66 35 45 44 44 20 -3z m-1057 -470 c33
-37 34 -42 40 -190 5 -126 4 -141 -10 -130 -33 28 -87 192 -87 265 0 39 14 77
29 77 4 0 17 -10 28 -22z m1153 3 c23 -44 0 -182 -45 -270 -40 -81 -45 -74
-45 63 0 130 7 166 42 204 26 27 34 28 48 3z m-484 -563 c40 -18 74 -36 74
-40 0 -17 -51 -19 -101 -4 -66 20 -111 20 -178 0 -37 -11 -60 -12 -79 -6 -26
9 -24 11 48 46 95 46 138 47 236 4z"/>
<path d="M1067 1869 l-28 -24 83 -1 c62 0 102 -7 161 -27 94 -33 99 -33 95 -5
-4 31 -107 68 -208 75 -70 5 -78 4 -103 -18z"/>
<path d="M1645 1875 c-77 -21 -125 -44 -125 -60 0 -26 20 -26 98 1 57 20 98
27 159 28 46 1 83 3 83 6 0 3 -13 13 -29 23 -35 21 -115 21 -186 2z"/>
<path d="M1165 1805 c-16 -9 -37 -23 -45 -32 -16 -17 -13 -16 33 2 7 3 17 -7
24 -25 9 -24 17 -30 42 -30 25 0 34 6 43 28 7 15 13 28 14 30 1 2 14 -4 28
-13 37 -24 32 -1 -4 25 -41 29 -97 35 -135 15z"/>
<path d="M1624 1801 c-23 -10 -44 -26 -47 -35 -6 -15 -4 -15 22 -1 28 14 29
13 35 -10 3 -13 14 -29 24 -34 25 -13 66 8 70 38 2 15 8 21 18 17 50 -20 50
-20 36 -4 -16 20 -74 48 -99 48 -10 0 -36 -9 -59 -19z"/>
<path d="M1337 1473 c-9 -9 -9 -61 1 -66 4 -3 22 -8 40 -12 44 -9 42 10 -4 25
-31 10 -35 15 -30 36 7 25 4 29 -7 17z"/>
<path d="M1556 1459 c5 -24 2 -28 -30 -39 -45 -15 -48 -34 -3 -25 29 6 57 28
57 45 0 3 -7 15 -15 26 -15 18 -15 18 -9 -7z"/>
</g>
</svg>
