<?xml version="1.0" standalone="no"?>
<!DOCTYPE svg PUBLIC "-//W3C//DTD SVG 20010904//EN"
 "http://www.w3.org/TR/2001/REC-SVG-20010904/DTD/svg10.dtd">
<svg version="1.0" xmlns="http://www.w3.org/2000/svg"
 width="516.000000pt" height="94.000000pt" viewBox="0 0 516.000000 94.000000"
 preserveAspectRatio="xMidYMid meet">

<g transform="translate(0.000000,94.000000) scale(0.100000,-0.100000)"
fill="#000000" stroke="none">
<path d="M470 715 c0 -73 1 -75 25 -75 l25 0 0 -159 c0 -158 0 -160 -22 -163
-21 -3 -23 -9 -26 -70 l-3 -68 116 0 115 0 0 70 c0 68 -1 70 -25 70 l-25 0 0
105 c0 58 3 105 8 104 4 0 23 -26 43 -57 20 -31 71 -110 114 -174 l77 -118 94
0 94 0 0 230 c0 223 1 230 20 230 18 0 20 7 20 75 l0 75 -110 0 -110 0 0 -75
c0 -73 1 -75 25 -75 24 0 25 -2 25 -74 0 -41 -4 -77 -9 -80 -5 -3 -22 15 -38
42 -17 26 -60 95 -98 155 l-67 107 -134 0 -134 0 0 -75z"/>
<path d="M1180 720 c0 -68 1 -70 25 -70 l25 0 0 -164 c0 -163 0 -165 -22 -168
-21 -3 -23 -9 -26 -70 l-3 -68 158 0 158 0 -3 70 c-3 67 -5 70 -28 70 l-24 0
2 162 3 162 25 6 c23 5 25 11 28 73 l3 67 -161 0 -160 0 0 -70z"/>
<path d="M1649 785 c0 -3 0 -35 -1 -72 0 -60 2 -68 20 -73 19 -5 18 -12 -31
-160 -28 -85 -52 -156 -53 -158 -1 -2 -10 -5 -21 -6 -15 -2 -18 -14 -21 -69
l-3 -67 106 0 105 0 0 65 c0 57 -2 65 -19 65 -17 0 -18 4 -9 40 l10 40 84 0
c74 0 83 -2 77 -17 -5 -12 -3 -14 7 -8 10 6 12 2 7 -16 -4 -13 -7 -27 -7 -31
0 -5 -9 -8 -20 -8 -18 0 -20 -7 -20 -67 0 -72 9 -83 12 -14 1 23 4 37 8 32 10
-17 65 3 64 22 -1 10 3 17 10 17 6 0 17 14 25 32 8 18 26 44 41 58 28 27 49
66 28 54 -8 -5 -9 1 -4 20 5 20 3 26 -5 21 -8 -5 -9 -1 -4 14 4 13 2 21 -5 21
-6 0 -9 4 -6 9 3 5 -1 30 -9 57 -15 50 -12 69 11 60 11 -4 14 9 14 69 l0 75
-195 0 c-107 0 -195 -2 -196 -5z m180 -192 c6 -21 11 -46 11 -55 0 -9 5 -20
10 -23 6 -4 8 -10 5 -15 -3 -5 -1 -11 5 -15 24 -15 6 -25 -46 -25 -39 0 -55 4
-52 13 32 120 44 157 50 157 4 0 12 -17 17 -37z"/>
<path d="M102 595 c-45 -91 -82 -167 -82 -170 0 -3 27 -5 60 -5 33 0 60 -2 60
-4 0 -2 -27 -68 -61 -146 -59 -139 -67 -174 -30 -134 87 93 332 397 325 404
-5 5 -35 10 -66 12 l-58 3 60 95 c33 52 60 98 60 102 0 4 -42 8 -93 8 l-92 0
-83 -165z m217 108 c-13 -21 -40 -65 -61 -97 -21 -33 -38 -63 -38 -68 0 -4 19
-8 43 -9 87 -1 87 -1 -51 -166 -70 -83 -128 -150 -130 -149 -1 2 17 51 42 109
24 59 41 109 38 112 -3 3 -29 5 -59 5 -29 0 -53 2 -53 5 0 3 33 70 72 150 l73
145 73 0 74 0 -23 -37z"/>
<path d="M2060 410 c0 -5 5 -10 11 -10 5 0 7 5 4 10 -3 6 -8 10 -11 10 -2 0
-4 -4 -4 -10z"/>
<path d="M2006 363 c-6 -14 -5 -15 5 -6 7 7 10 15 7 18 -3 3 -9 -2 -12 -12z"/>
<path d="M1890 240 c-8 -5 -11 -12 -8 -16 4 -3 14 1 23 10 18 17 9 21 -15 6z"/>
</g>
</svg>
